<?xml version="1.0" encoding="UTF-8" standalone="no"?>
<svg
   xmlns:dc="http://purl.org/dc/elements/1.1/"
   xmlns:cc="http://creativecommons.org/ns#"
   xmlns:rdf="http://www.w3.org/1999/02/22-rdf-syntax-ns#"
   xmlns:svg="http://www.w3.org/2000/svg"
   xmlns="http://www.w3.org/2000/svg"
   id="svg3779"
   version="1.1"
   viewBox="0 0 122.40803 32.936832"
   height="32.936832mm"
   width="122.40803mm">
  <defs
     id="defs3773">
    <style
       type="text/css"
       id="style3781"><![CDATA[
    .fil0 {fill:#FF4208}
    .fil1 {fill:black;fill-rule:nonzero}
   ]]></style>
  </defs>
  <metadata
     id="metadata3776">
    <rdf:RDF>
      <cc:Work
         rdf:about="">
        <dc:format>image/svg+xml</dc:format>
        <dc:type
           rdf:resource="http://purl.org/dc/dcmitype/StillImage" />
        <dc:title></dc:title>
      </cc:Work>
    </rdf:RDF>
  </metadata>
  <g
     transform="translate(-74.111463,-148.99587)"
     id="layer1">
    <g
       transform="matrix(0.01403279,0,0,0.01403279,74.111463,148.99587)"
       id="g3817"
       style="clip-rule:evenodd;fill-rule:evenodd;image-rendering:optimizeQuality;shape-rendering:geometricPrecision;text-rendering:geometricPrecision">
      <g
         id="Layer_x0020_1">
        <metadata
           id="CorelCorpID_0Corel-Layer" />
        <polygon
           style="fill:#ff4208"
           class="fil0"
           points="2581,2283 3243,2283 4014,111 3349,111 "
           id="polygon3786" />
        <path
           style="fill:#ff4208"
           class="fil0"
           d="m 5231,2282 h 657 l 343,-956 c 137,-231 412,-178 361,23 l -329,933 h 686 l 325,-912 c 86,-229 445,-243 367,27 l -306,885 h 663 L 8368,1233 C 8492,876 8055,398 7305,924 7216,684 6846,533 6352,883 l 33,-143 h -616 z"
           id="path3788" />
        <path
           style="fill:#ff4208"
           class="fil0"
           d="m 8538,350 c -92,0 -166,-73 -166,-165 0,-16 3,-31 8,-46 19,-69 83,-118 158,-118 91,0 165,74 165,164 0,92 -74,165 -165,165 z m 0,-350 c -84,0 -154,55 -177,130 -5,18 -8,36 -8,55 0,103 82,185 185,185 101,0 185,-82 185,-185 C 8723,84 8639,0 8538,0 Z"
           id="path3790" />
        <path
           style="fill:#ff4208"
           class="fil0"
           d="m 8568,181 h -63 -7 v -55 h 77 c 34,10 19,55 -7,55 z m 18,15 c 49,-22 29,-92 -18,-90 h -89 v 170 h 18 v -76 h 8 45 c 58,9 29,61 43,77 h 19 c -15,-20 11,-62 -26,-81 z"
           id="path3792" />
        <path
           style="fill:#ff4208"
           class="fil0"
           d="m 4558,739 h -621 l -366,1026 c -183,579 400,771 956,370 l -37,147 h 592 L 5628,740 h -633 l -324,881 c -76,215 -497,336 -432,7 z"
           id="path3794" />
        <path
           style="fill:#ff4208"
           class="fil0"
           d="m 2035,1648 c -124,152 -321,229 -435,153 -124,-82 -117,-270 7,-448 30,-44 62,-83 96,-114 116,-110 249,-146 356,-76 127,83 106,323 -24,485 z M 1808,820 2055,107 H 1390 L 1033,1122 626,2282 h 624 l 71,-172 c 39,261 899,480 1358,-446 361,-668 -50,-1331 -871,-844 z"
           id="path3796" />
        <path
           style="fill:#ff4208"
           class="fil0"
           d="m 416,1403 c 0,0 47,-117 133,-56 l 121,102 c 0,0 62,47 48,-43 L 645,781 c 0,0 -13,-99 -81,-32 l -435,440 c 0,0 -60,57 -16,66 l 176,-2 c 0,0 123,-1 72,156 l -303,874 -58,1 310,-890 c 0,0 22,-89 -39,-84 l -168,3 C 18,1312 14,1220 71,1166 L 540,693 c 59,-61 150,-28 158,55 18,141 81,686 81,686 11,88 -78,124 -138,65 l -94,-78 c 0,0 -60,-64 -85,19 l -295,842 -56,1 z"
           id="path3798" />
      </g>
    </g>
  </g>
</svg>
