<svg xmlns="http://www.w3.org/2000/svg" width="27" height="27" viewBox="0 0 27 27"><g><g><path d="M0 0h7.344v7.375H0zm0 9.844h7.344v7.375H0zm0 9.78h7.344V27H0zM9.844 0h7.312v7.375H9.844zm0 9.844h7.312v7.375H9.844zm0 9.78h7.312V27H9.844zM19.656 0H27v7.375h-7.344zm0 9.844H27v7.375h-7.344zm0 9.78H27V27h-7.344z"/><path fill="#ff5417" fill-opacity=".99" d="M0 0h7.344v7.375H0zm0 9.844h7.344v7.375H0zm0 9.78h7.344V27H0zM9.844 0h7.312v7.375H9.844zm0 9.844h7.312v7.375H9.844zm0 9.78h7.312V27H9.844zM19.656 0H27v7.375h-7.344zm0 9.844H27v7.375h-7.344zm0 9.78H27V27h-7.344z"/></g></g></svg>