<?xml version="1.0" encoding="UTF-8"?>
<!DOCTYPE svg PUBLIC "-//W3C//DTD SVG 1.1//EN" "http://www.w3.org/Graphics/SVG/1.1/DTD/svg11.dtd">
<!-- Creator: CorelDRAW 2018 (64-Bit) -->
<svg xmlns="http://www.w3.org/2000/svg" xml:space="preserve" width="200mm" height="57mm" version="1.1" style="shape-rendering:geometricPrecision; text-rendering:geometricPrecision; image-rendering:optimizeQuality; fill-rule:evenodd; clip-rule:evenodd"
viewBox="0 0 20000 5700"
 xmlns:xlink="http://www.w3.org/1999/xlink">
 <defs>
  <style type="text/css">
   <![CDATA[
    .fil0 {fill:#FF5417;fill-rule:nonzero}
   ]]>
  </style>
 </defs>
 <g id="Слой_x0020_1">
  <metadata id="CorelCorpID_0Corel-Layer"/>
  <path class="fil0" d="M3803.21 2030.27l335.14 -1684.52c17.64,-135.24 102.89,-202.86 255.76,-202.86l811.4 0c141.11,0 202.85,70.56 185.21,211.68l-978.97 5035.95c-17.64,135.23 -102.89,202.84 -255.76,202.84l-811.4 0c-141.11,0 -202.85,-73.49 -185.21,-220.48l343.96 -1772.73c0,-141.12 -55.86,-211.67 -167.57,-211.67l-1075.98 0c-99.96,0 -166.1,16.17 -198.44,48.51 -32.34,32.33 -57.33,89.67 -74.97,171.98l-352.78 1781.55c-17.64,135.23 -102.89,202.84 -255.76,202.84l-820.22 0c-141.11,0 -202.85,-73.49 -185.21,-220.48l978.97 -5027.13c17.64,-135.24 102.89,-202.86 255.76,-202.86l820.22 0c58.8,0 105.83,20.58 141.11,61.74 35.28,41.16 49.98,94.08 44.1,158.76 -23.52,141.11 -74.97,410.1 -154.34,806.98 -79.38,396.88 -136.7,689.39 -171.98,877.54 -11.76,82.32 -8.82,139.65 8.82,171.99 17.64,32.33 58.79,48.5 123.47,48.5l1146.54 0c76.44,0 130.82,-16.17 163.16,-48.5 32.34,-32.34 57.33,-95.55 74.97,-189.63zm6235.4 -158.75l-361.6 2002.03c-205.79,1181.82 -928.99,1772.73 -2169.6,1772.73 -629.13,0 -1096.57,-180.8 -1402.31,-542.4 -305.74,-361.6 -405.7,-812.87 -299.86,-1353.8l388.06 -1975.57c105.83,-535.05 342.49,-955.45 709.97,-1261.19 367.48,-305.75 842.26,-458.62 1424.36,-458.62 558.56,0 1006.89,173.45 1344.97,520.35 338.08,346.9 460.08,779.06 366.01,1296.47zm-1658.07 2072.59l388.06 -2046.13c41.16,-205.78 19.11,-377.77 -66.15,-515.94 -85.25,-138.17 -254.29,-207.26 -507.12,-207.26 -417.46,0 -667.34,199.91 -749.66,599.73l-414.52 2081.4c-35.27,188.16 -2.94,345.44 97.02,471.85 99.95,126.42 258.71,189.62 476.25,189.62 223.43,0 401.29,-54.38 533.58,-163.16 132.29,-108.78 213.14,-245.48 242.54,-410.11zm1905.02 1437.59l978.97 -5027.13c23.51,-141.12 111.71,-211.68 264.58,-211.68l811.4 0c146.99,0 205.78,70.56 176.38,211.68l-520.35 2689.95c-5.88,17.64 -4.41,29.4 4.41,35.28 8.82,5.88 19.11,0 30.87,-17.64l0 8.82c105.84,-141.12 410.11,-543.88 912.82,-1208.28 502.71,-664.4 883.42,-1170.06 1142.13,-1516.95 105.84,-135.24 235.19,-202.86 388.06,-202.86l582.09 0c146.99,0 205.79,70.56 176.39,211.68l-978.97 5027.13c-29.4,141.11 -114.65,211.66 -255.76,211.66l-793.76 0c-158.76,0 -223.43,-70.55 -194.03,-211.66l520.35 -2663.5c0,-11.76 -2.93,-19.11 -8.81,-22.05 -5.89,-2.94 -11.77,-1.47 -17.65,4.41 -246.94,329.26 -611.49,806.99 -1093.62,1433.17 -482.13,626.19 -811.4,1053.93 -987.79,1283.25 -88.19,117.59 -205.78,176.38 -352.78,176.38l-599.72 0c-152.87,0 -214.62,-70.55 -185.21,-211.66zm7073.26 -3721.84l-458.62 2398.91c-23.52,135.23 8.82,246.94 97.02,335.13 88.19,88.21 235.19,132.3 440.97,132.3 241.07,0 458.62,-108.78 652.64,-326.32 111.72,-152.87 220.5,-202.85 326.33,-149.93l635 414.52c129.36,88.19 138.18,205.78 26.46,352.77 -252.82,323.39 -521.82,542.4 -806.98,657.06 -285.17,114.65 -615.9,171.98 -992.2,171.98 -511.53,0 -915.76,-122 -1212.68,-366.01 -296.93,-244.01 -445.39,-562.98 -445.39,-956.92 0,-129.35 11.76,-241.06 35.28,-335.14l458.61 -2345.99c94.08,-493.9 296.93,-881.95 608.55,-1164.18 311.62,-282.23 732.02,-423.34 1261.19,-423.34 805.52,0 1384.67,299.87 1737.45,899.59 52.92,94.08 11.76,194.03 -123.47,299.87l-493.89 432.16c-82.33,58.79 -149.94,80.84 -202.86,66.14 -52.91,-14.7 -120.53,-77.9 -202.84,-189.62 -194.04,-258.71 -435.1,-388.06 -723.21,-388.06 -346.9,0 -552.69,161.69 -617.36,485.08z"/>
 </g>
</svg>
