<svg height="512" viewBox="0 0 512 512" width="512" xmlns="http://www.w3.org/2000/svg"><g><g><path d="m463.122 275.85 24.878-6.305v-27.09l-24.878-6.3c-1.914-12.139-2.088-13.237-4-25.376l21.51-13.516c-4.482-13.806-3.886-11.967-8.368-25.773l-25.373 1.7-11.674-22.881 16.371-19.67-15.938-21.909-23.706 9.5-18.168-18.168 9.5-23.707-21.91-15.941-19.666 16.372-22.88-11.674 1.7-25.374-25.778-8.368-13.516 21.51-25.376-4-6.305-24.88h-27.09l-6.3 24.878-25.376 4-13.52-21.508-25.773 8.368 1.7 25.373-22.881 11.674-19.67-16.371-21.909 15.938 9.5 23.706-18.168 18.168-23.707-9.5-15.937 21.908 16.372 19.671c-5.584 10.943-6.091 11.937-11.674 22.88l-25.374-1.7c-4.483 13.806-3.886 11.968-8.368 25.773l21.51 13.516c-1.914 12.139-2.087 13.238-4 25.376l-24.88 6.305v27.09l24.878 6.3c1.914 12.139 2.088 13.237 4 25.376l-21.508 13.52c4.482 13.806 3.886 11.967 8.368 25.773l25.373-1.7 11.674 22.886-16.371 19.67 15.938 21.909 23.706-9.5 18.168 18.168-9.5 23.707 21.909 15.938 19.671-16.372 22.88 11.674-1.7 25.374 25.773 8.368 13.516-21.51 25.376 4 6.304 24.874h27.09l6.3-24.878 25.376-4 13.516 21.51 25.773-8.368-1.7-25.373 22.89-11.676 19.67 16.371 21.909-15.938-9.5-23.706 18.168-18.168 23.707 9.5 15.938-21.909-16.378-19.665c5.584-10.943 6.091-11.937 11.674-22.88l25.374 1.7c4.483-13.806 3.886-11.967 8.368-25.773l-21.51-13.516c1.914-12.144 2.087-13.243 4.002-25.381zm-207.122 132.15a152 152 0 1 1 152-152 152 152 0 0 1 -152 152z" fill="#ffce00"/><g fill="#fff"><path d="m149.135 123.254a8 8 0 0 1 -6.869-14.06c2.372-1.86 4.819-3.684 7.276-5.42a8 8 0 0 1 9.236 13.065c-2.24 1.584-4.474 3.247-6.637 4.945a7.979 7.979 0 0 1 -3.006 1.47z"/><path d="m84.43 230.639a8 8 0 0 1 -9.794-9.19 184.6 184.6 0 0 1 42.17-88.008 8 8 0 0 1 12.094 10.479 168.577 168.577 0 0 0 -38.517 80.374 8 8 0 0 1 -5.953 6.345z"/><path d="m347.783 410.8a185.566 185.566 0 0 1 -30.4 14.263 8 8 0 0 1 -5.448-15.044 169.681 169.681 0 0 0 58.543-36.069 8 8 0 0 1 10.993 11.626 185 185 0 0 1 -33.688 25.224z"/><path d="m402.192 361.2a8 8 0 0 1 -10.555-11.552c1.635-2.292 3.23-4.652 4.741-7.015a8 8 0 0 1 13.48 8.621c-1.657 2.59-3.405 5.177-5.2 7.687a7.978 7.978 0 0 1 -2.466 2.259z"/></g><g><path d="m176 56h136.071a24 24 0 0 1 23.929 24v80l-16 16h-127.969l-16.031-16z" fill="#eaaa94"/><g fill="#fac8b2"><path d="m192.031 176h128.246v256h-128.246z"/><rect height="80" rx="16" width="32" x="176" y="24"/><rect height="80" rx="16" width="32" x="208" y="24"/><rect height="80" rx="16" width="32" x="240" y="24"/><rect height="80" rx="16" width="32" x="272" y="24"/></g><g fill="#f4bca8"><path d="m207.692 40v48a16 16 0 0 1 -32 0 16 16 0 0 0 16-16v-48a15.979 15.979 0 0 1 16 16z"/><path d="m239.692 40v48a16 16 0 0 1 -32 0 15.979 15.979 0 0 0 16-16v-48a16 16 0 0 1 16 16z"/><path d="m271.692 40v48a16 16 0 0 1 -32 0 15.979 15.979 0 0 0 16-16v-48a16 16 0 0 1 16 16z"/><path d="m303.692 40v48a16 16 0 0 1 -32 0 15.977 15.977 0 0 0 16-16v-48a16 16 0 0 1 16 16z"/></g><path d="m336 80v80l-16 16h-64v-32a40.015 40.015 0 0 1 40-40h-32a23.979 23.979 0 0 1 -22.62-16 23.6 23.6 0 0 1 -1.38-8 24.006 24.006 0 0 1 24-24h48a24.006 24.006 0 0 1 24 24z" fill="#fac8b2"/><path d="m256 176v-32a40 40 0 0 0 -40-40h-40v56l16 16z" fill="#fac8b2"/><path d="m312 56v88l-32 32h40l16-16v-80a24 24 0 0 0 -24-24z" fill="#f4bca8"/><path d="m296 176h24v256h-24z" fill="#f4bca8"/><path d="m296 88v16h-32a23.979 23.979 0 0 1 -22.62-16z" fill="#f4bca8"/><path d="m216 104h-40v16h24a56 56 0 0 1 56 56v-32a40 40 0 0 0 -40-40z" fill="#f4bca8"/></g><path d="m128 240h-48l16 40-16 40h80v-32h-32z" fill="#d20e0f"/><path d="m128 224h256v64h-256z" fill="#e22526"/><path d="m384.002 240h47.998l-16 40 16 40h-79.998v-32h32z" fill="#d20e0f"/><path d="m352 320 32-32h-32z" fill="#f98800"/><path d="m160 320-32-32h32z" fill="#f98800"/></g><path d="m489.967 234.706-19.767-5.014-2.357-14.954 17.041-10.7a8 8 0 0 0 3.354-9.242c-3.868-11.956-5.185-15.945-8.37-25.772a8 8 0 0 0 -8.144-5.512l-20.106 1.347-6.876-13.482 13-15.615a8 8 0 0 0 .319-9.826c-8.248-11.334-9.48-13.022-15.937-21.907a8 8 0 0 0 -9.446-2.721l-18.807 7.535c-4.36-4.363-6.344-6.347-10.708-10.706l7.537-18.811a8 8 0 0 0 -2.717-9.444l-21.9-15.939a8 8 0 0 0 -9.828.32l-15.614 13c-4.839-2.471-8.1-4.135-13.492-6.886l1.347-20.1a8 8 0 0 0 -5.512-8.144l-25.771-8.37a8 8 0 0 0 -9.105 3.154c-7.46-12.093-25.643-14.634-36.1-4.784-8.5-8.085-23.5-8.084-32 0-8.5-8.085-23.5-8.084-32 0-12.293-11.478-33.41-5.881-38.63 9.887a8.027 8.027 0 0 0 -5.862 8.257l1.347 20.105-13.482 6.876-15.624-12.997a8 8 0 0 0 -9.826-.318c-11.319 8.236-13.063 9.509-21.9 15.937a8 8 0 0 0 -2.721 9.446l7.535 18.807c-4.364 4.359-6.348 6.343-10.708 10.706l-18.812-7.539a8 8 0 0 0 -9.444 2.718l-15.939 21.9a8 8 0 0 0 .321 9.828l13 15.614c-2.482 4.861-4.135 8.1-6.886 13.492l-20.1-1.347a8.009 8.009 0 0 0 -8.144 5.512c-3.192 9.871-4.489 13.776-8.37 25.772a8 8 0 0 0 3.354 9.242l17.041 10.7-2.358 14.961-19.766 5.014a8 8 0 0 0 -6.034 7.754v27.08a8 8 0 0 0 6.033 7.754l19.767 5.014 2.357 14.954-17.041 10.7a8 8 0 0 0 -3.354 9.242c3.868 11.956 5.185 15.945 8.37 25.772a7.992 7.992 0 0 0 8.144 5.512l20.106-1.347 6.876 13.482-13 15.615a8 8 0 0 0 -.319 9.826c8.248 11.334 9.48 13.022 15.937 21.907a8 8 0 0 0 9.446 2.721l18.808-7.535c4.359 4.363 6.343 6.347 10.707 10.706l-7.535 18.807a8 8 0 0 0 2.717 9.444l21.9 15.939a8 8 0 0 0 9.828-.32l15.614-13c4.839 2.471 8.1 4.135 13.492 6.886l-1.347 20.1a8 8 0 0 0 5.512 8.144l25.771 8.37a8 8 0 0 0 9.243-3.354l10.7-17.041 14.956 2.357 5.012 19.765a8 8 0 0 0 7.76 6.04h27.08a8 8 0 0 0 7.755-6.034l5.012-19.765 14.956-2.357 10.7 17.041a8 8 0 0 0 9.243 3.354l25.771-8.37a8 8 0 0 0 5.512-8.144l-1.347-20.105 13.482-6.876 15.616 12.995a8 8 0 0 0 9.826.318c11.319-8.235 13.063-9.51 21.9-15.937a8 8 0 0 0 2.721-9.446l-7.535-18.807c4.364-4.359 6.348-6.343 10.707-10.706l18.808 7.535a8 8 0 0 0 9.444-2.718l15.939-21.9a8 8 0 0 0 -.321-9.828l-13-15.614c2.481-4.861 4.135-8.1 6.886-13.492l20.1 1.347a7.986 7.986 0 0 0 8.144-5.512c3.192-9.871 4.489-13.776 8.37-25.772a8 8 0 0 0 -3.354-9.242l-17.041-10.7 2.357-14.954 19.766-5.014a8 8 0 0 0 6.043-7.757v-27.08a8 8 0 0 0 -6.033-7.754zm-81.395 48.265 11.612 29.029h-48.87c.554-.722 20.327-19.857 19.758-20.261 1.877-.521.565-41.821.93-43.739h28.182l-11.612 29.029a8.008 8.008 0 0 0 0 5.942zm-305.144-5.942-11.612-29.029h28.184v40a8.161 8.161 0 0 0 .907 3.692c.169 1.343 18.673 18.92 19.779 20.308h-48.87l11.612-29.029a8.008 8.008 0 0 0 0-5.942zm138.872-173.529a31.9 31.9 0 0 0 18.128 8.3 48.266 48.266 0 0 0 -4.428 5.71 48.355 48.355 0 0 0 -13.91-13.767c.073-.081.144-.162.21-.243zm-26.3 8.5a32.036 32.036 0 0 1 32 32v32c.319 10.545 15.664 10.6 16 0v-32a32.036 32.036 0 0 1 32-32c10.56-.317 10.583-15.674 0-16h-32a16 16 0 0 1 0-32h48a16.019 16.019 0 0 1 16 16v76.687l-11.313 11.313h-12.687c-10.575.327-10.572 15.675 0 16h8v32h-112v-32h8c10.575-.327 10.572-15.675 0-16h-12.687l-11.313-11.313v-44.687zm144 188.685v-4.685h4.685zm16-20.685h-240v-48h240zm-224 20.687-4.687-4.687h4.687zm18.343-135.03 13.657 13.657v36.686h-56a8 8 0 0 0 -8 8v8h-6a144.176 144.176 0 0 1 54-89.966v17.966a8 8 0 0 0 2.343 5.657zm-10.343 162.343a8.062 8.062 0 0 0 8-8v-24h16v84.74a144.538 144.538 0 0 1 -52.74-52.74zm40-32h112v92.7a144.532 144.532 0 0 1 -112 0zm128 0h16c.122 1.275-.338 25.874.357 26.36a8.064 8.064 0 0 0 7.643 5.64h28.74a144.538 144.538 0 0 1 -52.74 52.74zm64-64v-8a8 8 0 0 0 -8-8h-56v-36.686l13.657-13.657a8 8 0 0 0 2.343-5.657v-17.966a144.176 144.176 0 0 1 54 89.966zm-73.8-191.1 13.912 4.519-.618 9.225a31.829 31.829 0 0 0 -17.78-6.6zm-30.2-8.9a8.009 8.009 0 0 1 8 8v8h-16v-8a8.009 8.009 0 0 1 8-8zm-32 0a8.009 8.009 0 0 1 8 8v8a31.8 31.8 0 0 0 -16 4.305v-12.305a8.009 8.009 0 0 1 8-8zm-32 0a8.009 8.009 0 0 1 8 8v48a8 8 0 0 1 -16 0v-48a8.009 8.009 0 0 1 8-8zm-40 8a8 8 0 0 1 16 0v48c-.33 10.559-15.662 10.582-16 0zm296 223.316-18.847 4.78a8 8 0 0 0 -5.935 6.51l-4 25.38a8 8 0 0 0 3.647 8.014l16.235 10.2c-1.792 5.52-2.938 9.041-4.52 13.911l-19.152-1.283a7.958 7.958 0 0 0 -7.663 4.35c-5.38 10.55-7.251 14.218-11.677 22.885a8 8 0 0 0 .977 8.756l12.389 14.881-8.608 11.827-17.93-7.184a8 8 0 0 0 -8.636 1.772c-8.687 8.7-9.467 9.477-18.164 18.164a8 8 0 0 0 -1.772 8.636l7.182 17.927c-4.542 3.3-6.779 4.93-11.838 8.612l-14.88-12.384a8 8 0 0 0 -8.752-.977l-22.878 11.668a8 8 0 0 0 -4.351 7.663l1.284 19.152-13.911 4.524-10.194-16.231a8 8 0 0 0 -8.018-3.648l-25.381 4a8 8 0 0 0 -6.511 5.937l-4.781 18.842h-14.63l-4.78-18.846a8 8 0 0 0 -6.511-5.937l-25.381-4a8 8 0 0 0 -8.013 3.648l-10.2 16.235-13.912-4.519 1.284-19.152a8 8 0 0 0 -4.351-7.663c-10.517-5.364-14.234-7.258-22.884-11.677a8 8 0 0 0 -8.757.977l-14.88 12.388-11.827-8.608 7.183-17.93a8 8 0 0 0 -1.772-8.636c-8.7-8.687-9.477-9.467-18.164-18.164a8 8 0 0 0 -8.636-1.772l-17.928 7.183c-3.449-4.745-4.916-6.762-8.611-11.839l12.385-14.88a8 8 0 0 0 .977-8.753l-11.669-22.877a7.988 7.988 0 0 0 -7.663-4.35l-19.152 1.283c-1.588-4.887-2.722-8.375-4.52-13.911l16.232-10.2a8 8 0 0 0 3.647-8.018l-4-25.38a8 8 0 0 0 -5.935-6.51l-18.847-4.776v-14.632l18.847-4.78a8 8 0 0 0 5.935-6.51l4-25.38a8 8 0 0 0 -3.647-8.014l-16.235-10.2c1.792-5.52 2.938-9.041 4.52-13.911l19.152 1.283a7.967 7.967 0 0 0 7.663-4.35c5.38-10.55 7.251-14.218 11.677-22.885a8 8 0 0 0 -.977-8.756l-12.389-14.881 8.608-11.827 17.93 7.184a8 8 0 0 0 8.636-1.772c8.687-8.7 9.467-9.477 18.164-18.164a8 8 0 0 0 1.772-8.636l-7.182-17.927c4.542-3.3 6.779-4.93 11.838-8.612l14.88 12.384a8 8 0 0 0 8.752.977l14.056-7.17c.116 6.28-.833 16.026 2.345 21.6a7.975 7.975 0 0 0 -2.345 5.663v18.353c-37.484 24.533-63.7 65.3-70.192 109.647h-17.808a8 8 0 0 0 -7.428 10.971l14.812 37.029-14.812 37.029a8.055 8.055 0 0 0 7.428 10.971h33.088c59.178 116.985 226.687 116.929 285.824 0h33.088a8.055 8.055 0 0 0 7.428-10.971l-14.812-37.029 14.812-37.029a8 8 0 0 0 -7.428-10.971h-17.808c-6.492-44.348-32.708-85.114-70.192-109.647-.049.6.147-48.315-.177-45.707 3.91 2 10.176 5.189 14.239 7.27a8 8 0 0 0 8.757-.978l14.881-12.392 11.827 8.608-7.183 17.93a8 8 0 0 0 1.772 8.636c8.7 8.687 9.477 9.467 18.164 18.164a8 8 0 0 0 8.636 1.772l17.928-7.183c3.449 4.745 4.916 6.762 8.611 11.839l-12.385 14.88a8 8 0 0 0 -.977 8.753l11.669 22.877a7.982 7.982 0 0 0 7.663 4.35l19.152-1.283c1.588 4.887 2.722 8.375 4.52 13.911l-16.232 10.2a8 8 0 0 0 -3.647 8.018l4 25.38a8 8 0 0 0 5.935 6.51l18.847 4.776z"/></g></svg>